PathFileType	4	(X/Y/Z)	C:\Users\Basilio\Documents\Thesis Gigler\squatting_fais\c3dfiles\019\SJ_pre4\markers_experimental.trc
DataRate	CameraRate	NumFrames	NumMarkers	Units	OrigDataRate	OrigDataStartFrame	OrigNumFrames
200.000000	200.000000	4	59	mm	200.000000	0	1308
Frame#	Time	LBHD			RBHD			C7			T10			CLAV			LSHO			LUUPA			LMUPA			LDUPA			LLEP			LMEP			LRAD			LUL			LRFIN			RSHO			RUPA1			RMUPA			RDUPA			RLEP			RMEP			RRAD			RUL			RUFIN			LASI			USACR			LSACR			RSACR			LTHI1			LTHI2			LTHI3			LTHI4			LLFC			LTIB1			LTIB2			LTIB3			LTIB4			LLMAL			LMMAL			LHEE			LMT1			LMT2			LMT5			RTHI			RTHI2			RTHI3			RTHI4			RLFC			RTIB1			RTIB2			RTIB3			RTIB4			RLMAL			RMMAL			RHEE			RMT1			RMT2			RMT5			FHD			RASI			
		X1	Y1	Z1	X2	Y2	Z2	X3	Y3	Z3	X4	Y4	Z4	X5	Y5	Z5	X6	Y6	Z6	X7	Y7	Z7	X8	Y8	Z8	X9	Y9	Z9	X10	Y10	Z10	X11	Y11	Z11	X12	Y12	Z12	X13	Y13	Z13	X14	Y14	Z14	X15	Y15	Z15	X16	Y16	Z16	X17	Y17	Z17	X18	Y18	Z18	X19	Y19	Z19	X20	Y20	Z20	X21	Y21	Z21	X22	Y22	Z22	X23	Y23	Z23	X24	Y24	Z24	X25	Y25	Z25	X26	Y26	Z26	X27	Y27	Z27	X28	Y28	Z28	X29	Y29	Z29	X30	Y30	Z30	X31	Y31	Z31	X32	Y32	Z32	X33	Y33	Z33	X34	Y34	Z34	X35	Y35	Z35	X36	Y36	Z36	X37	Y37	Z37	X38	Y38	Z38	X39	Y39	Z39	X40	Y40	Z40	X41	Y41	Z41	X42	Y42	Z42	X43	Y43	Z43	X44	Y44	Z44	X45	Y45	Z45	X46	Y46	Z46	X47	Y47	Z47	X48	Y48	Z48	X49	Y49	Z49	X50	Y50	Z50	X51	Y51	Z51	X52	Y52	Z52	X53	Y53	Z53	X54	Y54	Z54	X55	Y55	Z55	X56	Y56	Z56	X57	Y57	Z57	X58	Y58	Z58	X59	Y59	Z59	

1	0	-338.7383422851563	1625.850952148438	-1004.430297851563	-327.2334594726563	1614.597045898438	-865.0420532226565	-337.2633361816407	1465.939575195313	-934.368591308594	-371.1637268066407	1173.662109375	-932.294128417969	-204.0560302734376	1415.941162109375	-947.065124511719	-276.8187561035157	1454.545043945313	-1097.419677734375	-293.7828979492188	1305.02880859375	-1197.726318359375	-280.1885986328126	1263.724853515625	-1173.667724609375	-303.3110046386719	1244.438232421875	-1226.090209960938	-341.2305908203126	1187.671020507813	-1275.211791992188	-397.9860839843751	1168.65283203125	-1242.204833984375	-277.6556396484376	977.489196777344	-1144.03564453125	-257.6051940917969	955.9804687500002	-1205.05615234375	-229.0810241699219	964.3621826171877	-1113.65478515625	-250.0690002441407	1449.11572265625	-795.7615356445315	-311.6063232421876	1317.880126953125	-656.5395507812501	-276.5400695800782	1282.117919921875	-659.2764282226564	-312.6971435546876	1258.854125976563	-618.4468994140626	-308.8118286132813	1183.327880859375	-589.9645996093751	-370.3174133300782	1178.186279296875	-607.8465576171876	-273.7555847167969	975.3076782226565	-734.1122436523439	-247.1204986572266	948.520690917969	-682.2532348632814	-224.0991668701172	951.963073730469	-771.0266113281252	-212.5896453857422	966.383483886719	-1054.896484375	-365.2135314941407	1041.523315429688	-936.4661254882815	-372.1659851074219	1008.41259765625	-963.889099121094	-367.8604736328126	1009.662719726563	-907.0435791015627	-314.2909545898438	722.2725219726564	-1138.848999023438	-287.6945190429688	642.0518798828126	-1150.235961914063	-240.3041992187501	642.4191894531251	-1142.086059570313	-317.7079162597657	590.5387573242189	-1137.468872070313	-329.3764038085938	493.3234863281251	-1133.044067382813	-282.2268676757813	354.4589843750001	-1130.384643554688	-347.2846374511719	318.0953979492188	-1177.340087890625	-307.1723632812501	311.7478637695313	-1162.9423828125	-301.6050415039063	227.9176177978516	-1142.182495117188	-375.2765502929688	99.75490570068362	-1171.187866210938	-341.3525085449219	96.85327148437503	-1095.667358398438	-415.6519775390626	43.83656311035157	-1116.390625	-207.1826782226563	57.14924240112306	-1143.984985351563	-211.8836517333985	57.2182083129883	-1182.994750976563	-260.1067810058594	33.89818191528321	-1229.377807617188	-267.5786132812501	787.601745605469	-748.9254760742189	-237.1621704101563	731.9863891601564	-746.7889404296876	-208.3868560791016	723.4246826171876	-763.6655883789064	-272.7830200195313	654.3150024414064	-733.9183959960939	-330.9492797851563	494.9997558593751	-745.2026977539064	-280.8697814941407	311.9326171875001	-759.9144287109376	-341.8951721191407	238.6148223876954	-702.2758178710939	-302.2122802734376	234.6622924804688	-726.0804443359376	-299.7500305175782	185.4205474853516	-758.6397705078126	-363.9258117675782	99.951530456543	-713.3331298828126	-331.7004699707032	96.78129577636722	-782.8401489257815	-404.9630126953126	44.48064041137696	-766.6494140625001	-197.7864227294922	54.00452041625978	-731.8177490234376	-206.4409942626954	59.38212203979494	-685.5156250000001	-256.7236633300782	39.81925201416016	-643.2456665039064	nan	nan	nan	nan	nan	nan	
2	0.005	-338.8394775390626	1625.856567382813	-1004.437072753906	-327.3308715820313	1614.579711914063	-865.0740966796877	-337.3900451660157	1465.953369140625	-934.4041748046877	-371.3654479980469	1173.680053710938	-932.343200683594	-204.1969604492188	1416.007446289063	-947.0657348632815	-277.0410156250001	1454.5625	-1097.58447265625	-293.8500061035157	1305.015380859375	-1197.732177734375	-280.3273925781251	1263.707641601563	-1173.716186523438	-303.4473266601563	1244.470825195313	-1226.1220703125	-341.3702697753907	1187.67919921875	-1275.2197265625	-398.0775756835939	1168.722900390625	-1242.184692382813	-277.8455200195313	977.511901855469	-1144.034301757813	-257.8208923339844	956.0238037109377	-1205.032836914063	-229.1557617187501	964.3784790039065	-1113.611938476563	-250.1922454833985	1449.147705078125	-795.7734375000002	-311.7461242675782	1317.930786132813	-656.5952148437501	-276.6105346679688	1282.077392578125	-659.3648681640626	-312.7946166992188	1258.930419921875	-618.4512329101564	-309.0026245117188	1183.34423828125	-590.0097045898439	-370.4737548828126	1178.1875	-607.9150390625001	-273.8929748535157	975.340515136719	-734.0689697265626	-247.2955474853516	948.514343261719	-682.2468872070314	-224.3488159179688	952.0137329101565	-771.0622558593752	-212.7390441894532	966.414001464844	-1054.888671875	-365.3663330078126	1041.554443359375	-936.479187011719	-372.3238525390626	1008.423889160156	-963.8729248046877	-368.0969543457032	1009.6552734375	-907.0750732421877	-314.3703613281251	722.3157348632814	-1138.804565429688	-287.8084716796876	642.0583496093751	-1150.26708984375	-240.4535369873047	642.4259033203126	-1142.069091796875	-317.7517700195313	590.5359497070314	-1137.356811523438	-329.4234924316407	493.3189697265626	-1133.0615234375	-282.2268676757813	354.4589843750001	-1130.384643554688	-347.2956848144532	318.0809631347657	-1177.341796875	-307.2254638671876	311.7292480468751	-1162.961669921875	-301.6203918457032	227.8992614746094	-1142.148803710938	-375.2298889160157	99.74711608886722	-1171.1767578125	-341.3604125976563	96.86600494384768	-1095.671875	-415.660614013672	43.87035751342774	-1116.377563476563	-207.1364440917969	57.15243911743165	-1143.97509765625	-211.8812866210938	57.17567062377931	-1182.977416992188	-260.1459045410157	33.88031387329102	-1229.357788085938	-267.6767578125001	787.5891113281252	-748.9451904296876	-237.2193603515626	732.0381469726564	-746.7951049804689	-208.4779205322266	723.4033813476564	-763.6616210937501	-272.8598327636719	654.3883056640626	-733.9403686523439	-330.9026184082032	494.9258422851564	-745.2068481445314	-280.8952026367188	311.9509277343751	-759.9392089843751	-341.9114990234376	238.5974731445313	-702.2791748046876	-302.3665771484376	234.6637878417969	-726.0591430664064	-299.7769775390626	185.4166870117188	-758.6153564453126	-363.9498596191407	99.96247100830081	-713.3211669921876	-331.7113037109376	96.75261688232425	-782.851745605469	-404.7830810546876	44.30276489257813	-766.7336425781251	-197.7581329345704	54.01154708862306	-731.8477783203126	-206.3040313720704	59.30475234985353	-685.5434570312501	-256.7172241210938	39.8186378479004	-643.2534179687501	nan	nan	nan	nan	nan	nan	
3	0.01	-338.8971862792969	1625.900268554688	-1004.491821289063	-327.4471435546876	1614.597290039063	-865.098327636719	-337.4181213378907	1466.037963867188	-934.4537353515627	-371.5312500000001	1173.730224609375	-932.3574218750002	-204.2188720703126	1415.977905273438	-947.1085205078127	-277.3770751953126	1454.557983398438	-1097.835327148438	-293.9775085449219	1305.067993164063	-1197.7607421875	-280.3914184570313	1263.717041015625	-1173.674072265625	-303.5281066894532	1244.473999023438	-1226.14453125	-341.4524841308594	1187.714111328125	-1275.260498046875	-398.1405029296876	1168.753784179688	-1242.230590820313	-277.9855041503907	977.5449218750002	-1144.039306640625	-257.9559936523438	956.0085449218752	-1205.062377929688	-229.3361053466797	964.3928222656252	-1113.574584960938	-250.2830810546876	1449.17138671875	-795.8410644531252	-311.8428649902344	1317.981689453125	-656.6021728515626	-276.6754455566407	1282.211059570313	-659.3818359375001	-312.9676208496094	1258.925903320313	-618.4879150390626	-309.0606079101563	1183.3828125	-590.0261840820314	-370.6106567382813	1178.216064453125	-607.9657592773439	-274.0468444824219	975.3354492187502	-734.1113281250001	-247.4628601074219	948.5186767578127	-682.2471313476564	-224.7684173583985	952.0806274414065	-771.1799926757815	-212.9044342041016	966.4065551757815	-1054.8974609375	-365.5830078125001	1041.507934570313	-936.497497558594	-372.5214233398438	1008.467163085938	-963.918884277344	-368.3018493652344	1009.674072265625	-907.0299072265627	-314.5398559570313	722.3202514648439	-1138.8310546875	-287.8512573242188	642.0617065429689	-1150.228637695313	-240.5197143554688	642.4746704101564	-1142.104125976563	-317.8953247070313	590.5503540039064	-1137.50634765625	-329.4999389648438	493.315155029297	-1133.040893554688	-282.2597961425782	354.4693298339844	-1130.360473632813	-347.3282470703126	318.0818786621094	-1177.345092773438	-307.2436218261719	311.7452697753907	-1162.956665039063	-301.6311645507813	227.9133453369141	-1142.152099609375	-375.3192138671876	99.73084259033206	-1171.163818359375	-341.3519897460938	96.86174011230472	-1095.66943359375	-415.6519775390626	43.83656311035157	-1116.390625	-207.1221466064454	57.16388320922853	-1143.950073242188	-211.8476715087891	57.23953247070314	-1182.901733398438	-260.1459045410157	33.88031387329102	-1229.357788085938	-267.8443603515626	787.6002197265627	-748.9686279296876	-237.3278808593751	732.0603027343751	-746.7700195312501	-208.5860900878907	723.4148559570314	-763.6137084960939	-272.9363403320313	654.4135131835939	-733.9000854492189	-331.0924682617188	495.0137329101564	-745.1947631835939	-280.8932800292969	311.9919128417969	-759.9631958007814	-341.9142761230469	238.5904693603516	-702.2756347656251	-302.3206787109376	234.6708068847657	-726.0278930664064	-299.7348937988282	185.386947631836	-758.5994873046876	-363.9571838378907	99.93778228759768	-713.3192749023439	-331.7004699707032	96.78129577636722	-782.8401489257815	-404.9630126953126	44.48063278198243	-766.6494140625001	-197.7341003417969	54.0187454223633	-731.8369750976564	-206.3823547363282	59.35816955566408	-685.5297241210939	-256.7064208984376	39.84605407714844	-643.2395629882814	nan	nan	nan	nan	nan	nan	
4	0.015	-338.9451599121094	1625.914794921875	-1004.523254394531	-327.4686584472657	1614.635864257813	-865.1312255859377	-337.5944213867188	1465.98486328125	-934.4851074218752	-371.6605834960938	1173.716796875	-932.3480224609377	-204.3247680664063	1416.016845703125	-947.1428833007815	-276.9476318359376	1454.62353515625	-1097.465209960938	-294.0255737304688	1305.052734375	-1197.81005859375	-280.5343933105469	1263.767578125	-1173.762451171875	-303.5698852539063	1244.524291992188	-1226.230224609375	-341.5795898437501	1187.749633789063	-1275.274658203125	-398.3381347656251	1168.769653320313	-1242.25732421875	-278.1512451171876	977.545593261719	-1144.022827148438	-258.1241760253907	956.014831542969	-1205.0263671875	-229.5455932617188	964.403747558594	-1113.655151367188	-250.3225708007813	1449.157104492188	-795.802673339844	-311.8773803710938	1317.955078125	-656.6011352539064	-276.7988281250001	1282.18408203125	-659.3650512695314	-313.0751647949219	1258.97216796875	-618.5166015625001	-309.1870422363282	1183.447021484375	-590.0310058593751	-370.7921142578126	1178.226440429688	-607.9893798828126	-274.2123107910157	975.360778808594	-734.1197509765626	-247.6375274658204	948.5125732421877	-682.2406616210939	-224.7914123535157	952.051208496094	-771.1479492187502	-213.0396270751954	966.4631958007815	-1054.884643554688	-365.7705078125001	1041.539916992188	-936.4512939453127	-372.6868591308594	1008.411804199219	-963.9029541015627	-368.3727111816407	1009.637451171875	-907.0548095703127	-314.6053771972657	722.3510131835939	-1138.767578125	-287.9764099121094	642.0732421875001	-1150.2763671875	-240.652816772461	642.5042724609376	-1142.103271484375	-317.9289855957032	590.5360107421876	-1137.44970703125	-329.5393371582032	493.2956542968751	-1133.035034179688	-282.3033447265626	354.4652099609376	-1130.373657226563	-347.4475708007813	318.0935668945313	-1177.377685546875	-307.2990417480469	311.7575683593751	-1162.960571289063	-301.6564941406251	227.9107971191407	-1142.12451171875	-375.3031616210938	99.75678253173831	-1171.188720703125	-341.3723144531251	96.83491516113284	-1095.675903320313	-415.6607360839845	43.87030792236329	-1116.377563476563	-207.1509552001954	57.18597412109376	-1143.980712890625	-211.9030303955079	57.22349548339845	-1182.932983398438	-260.1894226074219	33.87981796264649	-1229.350341796875	-268.0054321289063	787.6499023437502	-748.9472656250001	-237.5041198730469	732.1176147460939	-746.7951660156251	-208.8417968750001	723.6095581054689	-763.6182250976564	-273.0748291015626	654.4315795898439	-733.9055786132814	-331.1095275878907	495.0095825195314	-745.1805419921876	-280.9387207031251	311.9713745117188	-759.9343872070314	-341.9403686523438	238.6159362792969	-702.2803955078126	-302.2410583496094	234.7407379150391	-726.0136718750001	-299.8249511718751	185.4244995117188	-758.6294555664064	-363.9613952636719	99.96417999267581	-713.3171997070314	-331.7127990722657	96.73547363281253	-782.8426513671877	-404.7744750976564	44.29845046997071	-766.7333984375001	-197.7393341064454	54.0148277282715	-731.8396606445314	-206.4154815673829	59.42578125000001	-685.5197753906251	-256.7008972167969	39.84621810913087	-643.2473754882814	nan	nan	nan	nan	nan	nan	
